<svg xmlns="http://www.w3.org/2000/svg" width="256.001" height="52.401" viewBox="0 0 256.001 52.401">
  <g id="Grupo_6753" data-name="Grupo 6753" transform="translate(-151.999 -1462.001)">
    <path id="Path_357" data-name="Path 357" d="M624.912-1101.481c5.508,0,10.1,4.962,11.157,11.556H619.18l-1.939,3.383h23.645c0-.164.007-.328.007-.493,0-9.687-7.155-17.537-15.982-17.537s-15.981,7.851-15.981,17.538,7.155,17.536,15.981,17.536c6.613,0,12.291-4.41,14.721-10.7H634.94c-1.922,4.526-5.692,7.6-10.029,7.6-6.287,0-11.384-6.465-11.384-14.444S618.624-1101.481,624.912-1101.481Zm20.954-2.572h13.918c7.929.666,11.476,5.429,11.642,11.432v14.927l-4.365,7.552h-.029V-1092.1c-.189-2.846-1-9.025-8.43-8.965h-8.345v30.92h-4.391Z" transform="translate(-400.119 2578.734)" fill="#fff" fill-rule="evenodd"/>
    <path id="Path_358" data-name="Path 358" d="M420.071-1126.92a25.375,25.375,0,0,0-7.953,18.706c0,13.491,9.965,24.424,22.257,24.424a20.521,20.521,0,0,0,9.3-2.231L442.6-1087.9a16.46,16.46,0,0,1-8.228,2.225c-10.476,0-18.968-10.092-18.968-22.541a24.622,24.622,0,0,1,5.982-16.426Zm14.718,10.327a6.507,6.507,0,0,1,3.485,1.034l1.174-2.035a10.181,10.181,0,0,0-4.66-1.134c-6.09,0-11.025,5.417-11.025,12.1a12.565,12.565,0,0,0,3.98,9.308l1.385-2.4a11.4,11.4,0,0,1-2.189-6.584H433l1.336-2.314h-7.242c.726-4.55,3.9-7.975,7.7-7.975Zm-.415-7.369a2.606,2.606,0,0,1,2.391,2.776,3.082,3.082,0,0,1-.378,1.489c-.373-.035-.75-.055-1.134-.055a11.53,11.53,0,0,0-2.732.326,3.044,3.044,0,0,1-.544-1.76,2.606,2.606,0,0,1,2.391-2.776" transform="translate(-260.117 2594.633)" fill="#fff" fill-rule="evenodd"/>
    <path id="Path_359" data-name="Path 359" d="M856.317-1104.572a15.771,15.771,0,0,1,13.8,8.692H865.4c-.037-.055-.074-.11-.109-.164-2.105-3.307-5.344-5.428-8.975-5.428a10.572,10.572,0,0,0-9.087,5.6c-.715,1.406.029,4.39,3.685,5.311,6.121,1.538,12.713.906,18.166,4.658a5.092,5.092,0,0,1,1.639,6.5c-2.587,5.858-8.059,9.9-14.391,9.9a15.521,15.521,0,0,1-12.9-7.18l2.474-4.286c1.822,4.947,5.8,8.371,10.425,8.371,4.3,0,8.049-2.971,10.015-7.37,2.053-4.587-5.435-6.018-8.274-6.3-4.593-.442-20.133-3.094-14.566-11.265a15.543,15.543,0,0,1,12.807-7.045" transform="translate(-566.145 2578.734)" fill="#fff" fill-rule="evenodd"/>
    <path id="Path_360" data-name="Path 360" d="M463.251-1146.71a20.6,20.6,0,0,0-10.541,2.906l1.123,1.945a16.628,16.628,0,0,1,9.417-2.971c10.476,0,18.968,10.091,18.968,22.54a24.316,24.316,0,0,1-6.991,17.478l1.25,2.165a25.226,25.226,0,0,0,9.034-19.646C485.507-1135.776,475.542-1146.71,463.251-1146.71Zm8.424,17.779-4.085,7.075a13.012,13.012,0,0,1,4.777,1.937,3.512,3.512,0,0,1,1.134,4.486,11,11,0,0,1-9.929,6.828,10.233,10.233,0,0,1-5.3-1.486l1.2-2.085a6.736,6.736,0,0,0,4.1,1.434c2.967,0,5.553-2.049,6.912-5.086,1.417-3.163-3.75-4.157-5.709-4.341-.189-.02-.406-.044-.644-.072l1.159-2.008h0l4.767-8.257a11.6,11.6,0,0,1,1.619,1.576" transform="translate(-288.998 2608.711)" fill="#fff" fill-rule="evenodd"/>
    <path id="Union_1" data-name="Union 1" d="M1.09,51.575a4.449,4.449,0,0,1-.973-3.023,4.324,4.324,0,0,1,.958-2.967A3.319,3.319,0,0,1,3.7,44.5a3.557,3.557,0,0,1,2.667,1.021,3.756,3.756,0,0,1,1,2.74,1,1,0,0,1-.183.693,1.424,1.424,0,0,1-.915.189H2.239A2.116,2.116,0,0,0,2.7,50.517,1.527,1.527,0,0,0,3.9,50.99a2.042,2.042,0,0,0,.648-.094,1.571,1.571,0,0,0,.522-.289q.058-.049.148-.134A1.475,1.475,0,0,1,6.122,50a.792.792,0,0,1,.574.222.738.738,0,0,1,.229.543,1.018,1.018,0,0,1-.123.472,1.949,1.949,0,0,1-.378.483,3.373,3.373,0,0,1-1.188.715,4.428,4.428,0,0,1-1.512.25,3.314,3.314,0,0,1-2.636-1.118Zm1.592-4.961A1.9,1.9,0,0,0,2.238,47.8H5.255a1.775,1.775,0,0,0-.419-1.181,1.437,1.437,0,0,0-1.1-.4A1.379,1.379,0,0,0,2.682,46.614Zm37.471-6.228a1.407,1.407,0,0,1-.856-1.212.866.866,0,0,1,.267-.652.938.938,0,0,1,.676-.257.985.985,0,0,1,.387.077,2.436,2.436,0,0,1,.507.338l.021.021a2.072,2.072,0,0,0,1.3.542,1.8,1.8,0,0,0,1.339-.4,2.21,2.21,0,0,0,.378-1.5v-.684a2.049,2.049,0,0,1-.842.821,2.834,2.834,0,0,1-1.293.265,2.96,2.96,0,0,1-2.378-1.056,4.231,4.231,0,0,1-.895-2.822,4.6,4.6,0,0,1,.877-2.956,2.871,2.871,0,0,1,2.362-1.1,2.74,2.74,0,0,1,1.323.3,2.267,2.267,0,0,1,.891.9v-.131a.915.915,0,0,1,.26-.676,1.087,1.087,0,0,1,1.441.025,1.323,1.323,0,0,1,.243.87v6.141a3.761,3.761,0,0,1-.87,2.812,4.212,4.212,0,0,1-2.934.825,4.44,4.44,0,0,1-2.208-.488Zm1.123-8.234a2.73,2.73,0,0,0-.43,1.642,2.722,2.722,0,0,0,.433,1.656,1.613,1.613,0,0,0,2.473,0,2.812,2.812,0,0,0,.427-1.692,2.62,2.62,0,0,0-.44-1.624,1.483,1.483,0,0,0-1.251-.574,1.417,1.417,0,0,0-1.211.585Zm34.9,5.3a1.581,1.581,0,0,1-.9-1.335.9.9,0,0,1,.26-.666A.9.9,0,0,1,76.2,35.2a1.315,1.315,0,0,1,.924.528c.09.094.158.171.2.218a1.459,1.459,0,0,0,.567.356,2.532,2.532,0,0,0,.808.11,1.819,1.819,0,0,0,.937-.2.63.63,0,0,0,.331-.567q0-.487-1.184-.768a.221.221,0,0,1-.042-.014l-.8-.183a4.913,4.913,0,0,1-2.047-.881,1.809,1.809,0,0,1-.609-1.43,2.267,2.267,0,0,1,.85-1.864,3.553,3.553,0,0,1,2.3-.687,4.266,4.266,0,0,1,2.131.487,1.386,1.386,0,0,1,.856,1.17.784.784,0,0,1-.243.592.85.85,0,0,1-.609.232,1.817,1.817,0,0,1-.966-.479q-.106-.085-.163-.127A1.39,1.39,0,0,0,79,31.474a1.9,1.9,0,0,0-.556-.088,1.631,1.631,0,0,0-.856.18.594.594,0,0,0-.283.539.484.484,0,0,0,.26.437,4.965,4.965,0,0,0,1.2.36l.635.141a4.724,4.724,0,0,1,2.049.846,1.834,1.834,0,0,1,.591,1.452,2.323,2.323,0,0,1-.919,1.984,4.441,4.441,0,0,1-2.674.684,4.251,4.251,0,0,1-2.265-.557Zm-8.435-.543A4.2,4.2,0,0,1,66.7,33.9a4.185,4.185,0,0,1,1.039-3,4.251,4.251,0,0,1,5.69,0,4.176,4.176,0,0,1,1.039,3,4.187,4.187,0,0,1-1.039,3.009A4.251,4.251,0,0,1,67.74,36.913Zm1.512-4.76a2.844,2.844,0,0,0-.472,1.751,2.874,2.874,0,0,0,.472,1.761,1.732,1.732,0,0,0,2.656,0A2.874,2.874,0,0,0,72.38,33.9a2.844,2.844,0,0,0-.472-1.751,1.738,1.738,0,0,0-2.656,0Zm-12.69,4.762a4.434,4.434,0,0,1-.945-3.012,4.362,4.362,0,0,1,.969-3.005,3.387,3.387,0,0,1,2.667-1.088,3.685,3.685,0,0,1,2.213.661,1.86,1.86,0,0,1,.916,1.5.781.781,0,0,1-.265.592.957.957,0,0,1-1.123.115,2.093,2.093,0,0,1-.5-.472,2.025,2.025,0,0,0-.6-.532,1.417,1.417,0,0,0-.645-.137,1.241,1.241,0,0,0-1.127.6,3.452,3.452,0,0,0-.378,1.8,3.1,3.1,0,0,0,.391,1.7,1.264,1.264,0,0,0,1.124.6,1.356,1.356,0,0,0,.574-.112,1.4,1.4,0,0,0,.462-.367,2.935,2.935,0,0,0,.212-.275,1.252,1.252,0,0,1,.945-.648.9.9,0,0,1,.656.265.871.871,0,0,1,.268.644,1.453,1.453,0,0,1-.189.7,2.527,2.527,0,0,1-.56.676,3.522,3.522,0,0,1-1.121.676,3.824,3.824,0,0,1-1.318.218,3.307,3.307,0,0,1-2.632-1.088Zm-8.314,0a4.2,4.2,0,0,1-1.039-3.009,4.185,4.185,0,0,1,1.039-3,4.251,4.251,0,0,1,5.69,0,4.178,4.178,0,0,1,1.039,3,4.187,4.187,0,0,1-1.039,3.009,4.251,4.251,0,0,1-5.69,0Zm1.512-4.76a2.844,2.844,0,0,0-.472,1.751,2.874,2.874,0,0,0,.472,1.761,1.732,1.732,0,0,0,2.656,0,2.876,2.876,0,0,0,.472-1.761,2.846,2.846,0,0,0-.472-1.751,1.739,1.739,0,0,0-2.656,0ZM31.9,36.892a4.449,4.449,0,0,1-.973-3.023,4.324,4.324,0,0,1,.958-2.967,3.319,3.319,0,0,1,2.622-1.086,3.556,3.556,0,0,1,2.673,1.014,3.756,3.756,0,0,1,1,2.74,1,1,0,0,1-.183.693,1.428,1.428,0,0,1-.915.189H33.057a2.114,2.114,0,0,0,.462,1.374,1.527,1.527,0,0,0,1.194.472,2.042,2.042,0,0,0,.648-.094,1.571,1.571,0,0,0,.521-.289c.038-.033.087-.077.148-.134a1.475,1.475,0,0,1,.909-.472.792.792,0,0,1,.574.222.738.738,0,0,1,.229.553,1.02,1.02,0,0,1-.123.472,1.949,1.949,0,0,1-.378.483,3.37,3.37,0,0,1-1.188.715,4.428,4.428,0,0,1-1.512.25,3.315,3.315,0,0,1-2.635-1.115Zm1.592-4.961a1.9,1.9,0,0,0-.444,1.18h3.016a1.775,1.775,0,0,0-.419-1.18,1.437,1.437,0,0,0-1.1-.4,1.379,1.379,0,0,0-1.056.4Zm-23.9,4.961a4.449,4.449,0,0,1-.973-3.023A4.324,4.324,0,0,1,9.577,30.9,3.319,3.319,0,0,1,12.2,29.816,3.555,3.555,0,0,1,14.87,30.83a3.756,3.756,0,0,1,1,2.74,1,1,0,0,1-.183.693,1.427,1.427,0,0,1-.915.189H10.744a2.114,2.114,0,0,0,.462,1.374A1.527,1.527,0,0,0,12.4,36.3a2.042,2.042,0,0,0,.648-.094,1.571,1.571,0,0,0,.522-.289c.038-.033.087-.077.148-.134a1.475,1.475,0,0,1,.909-.472.792.792,0,0,1,.574.222.738.738,0,0,1,.23.553,1.019,1.019,0,0,1-.124.472,1.953,1.953,0,0,1-.378.483,3.373,3.373,0,0,1-1.188.715A4.428,4.428,0,0,1,12.23,38,3.315,3.315,0,0,1,9.6,36.884Zm1.592-4.961a1.9,1.9,0,0,0-.444,1.18h3.016a1.776,1.776,0,0,0-.419-1.18,1.437,1.437,0,0,0-1.1-.4,1.379,1.379,0,0,0-1.056.4ZM1.009,36.884a4.629,4.629,0,0,1-.877-2.936,4.76,4.76,0,0,1,.878-2.977,2.729,2.729,0,0,1,2.267-1.145,2.755,2.755,0,0,1,1.31.306,2.645,2.645,0,0,1,.973.905V28.363a1.28,1.28,0,0,1,.247-.856.934.934,0,0,1,.745-.283.934.934,0,0,1,.747.283,1.28,1.28,0,0,1,.247.856v8.371a1.241,1.241,0,0,1-.254.85.982.982,0,0,1-.768.283.928.928,0,0,1-.691-.236.959.959,0,0,1-.232-.7v-.224a3.082,3.082,0,0,1-1.01.987A2.581,2.581,0,0,1,3.3,38a2.775,2.775,0,0,1-2.293-1.12ZM2.626,32.2a2.746,2.746,0,0,0-.444,1.659,3.084,3.084,0,0,0,.426,1.769,1.406,1.406,0,0,0,1.228.613,1.484,1.484,0,0,0,1.282-.6,3.023,3.023,0,0,0,.437-1.779A2.7,2.7,0,0,0,5.1,32.188,1.506,1.506,0,0,0,3.833,31.6a1.425,1.425,0,0,0-1.206.6Zm61.246,5.385a1.228,1.228,0,0,1-.257-.85V31.092a1.27,1.27,0,0,1,.257-.866,1.165,1.165,0,0,1,1.536,0,1.27,1.27,0,0,1,.257.866v5.644a1.228,1.228,0,0,1-.257.85,1.177,1.177,0,0,1-1.536,0Zm-36.2.088a2.929,2.929,0,0,1-.782-.966l-3.622-6.1V36.6a1.469,1.469,0,0,1-.26.959,1.192,1.192,0,0,1-1.6.007,1.512,1.512,0,0,1-.251-.966V28.856a2.112,2.112,0,0,1,.283-1.286,1.257,1.257,0,0,1,1.015-.341q.838,0,1.677,1.417.077.127.112.189L27.611,34.5V28.492a1.483,1.483,0,0,1,.258-.958,1.188,1.188,0,0,1,1.6,0,1.5,1.5,0,0,1,.253.962v7.776a2.21,2.21,0,0,1-.257,1.251,1.045,1.045,0,0,1-.9.349,1.7,1.7,0,0,1-.888-.2Zm36.208-8.611a1.079,1.079,0,1,1,1.526-1.526,1.05,1.05,0,0,1,.314.772,1.071,1.071,0,0,1-1.839.756ZM50.262,29a.506.506,0,0,1-.173-.378.572.572,0,0,1,.032-.18,1.766,1.766,0,0,1,.11-.243l.909-1.559a.756.756,0,0,1,.26-.268.666.666,0,0,1,.347-.094.85.85,0,0,1,.6.222.724.724,0,0,1,.24.554.756.756,0,0,1-.063.3.938.938,0,0,1-.183.275l-1.174,1.3a.7.7,0,0,1-.23.183.679.679,0,0,1-.257.043.59.59,0,0,1-.418-.16ZM82.534,23.03a1.369,1.369,0,0,1-.279-.931,2.551,2.551,0,0,1-1.015.913,3.22,3.22,0,0,1-1.459.314,2.267,2.267,0,0,1-1.709-.627,2.412,2.412,0,0,1-.609-1.754,2.309,2.309,0,0,1,.515-1.617,3.246,3.246,0,0,1,1.748-.821q.472-.094,1.2-.189a6.418,6.418,0,0,0,.945-.159.413.413,0,0,0,.24-.2.8.8,0,0,0,.077-.378.756.756,0,0,0-.289-.661,1.747,1.747,0,0,0-.966-.2,2.008,2.008,0,0,0-.644.094,1.576,1.576,0,0,0-.518.289q-.077.071-.232.24a1.323,1.323,0,0,1-.909.528.787.787,0,0,1-.589-.243.823.823,0,0,1-.236-.6,1.62,1.62,0,0,1,.884-1.343,3.909,3.909,0,0,1,2.173-.574,4.524,4.524,0,0,1,2.463.556,1.8,1.8,0,0,1,.856,1.606v4.356a4.733,4.733,0,0,0,.035.536q.035.3.035.378a.73.73,0,0,1-.232.574.937.937,0,0,1-.648.208,1.089,1.089,0,0,1-.842-.3Zm-1.473-3.372q-.652.138-.673.145a1.646,1.646,0,0,0-.75.387.908.908,0,0,0-.214.642.85.85,0,0,0,.283.679,1.171,1.171,0,0,0,.789.243,1.688,1.688,0,0,0,1.255-.472,1.727,1.727,0,0,0,.472-1.272v-.725a5.251,5.251,0,0,1-1.159.378ZM34.579,23.031A1.369,1.369,0,0,1,34.3,22.1a2.551,2.551,0,0,1-1.015.913,3.22,3.22,0,0,1-1.459.314,2.267,2.267,0,0,1-1.709-.627,2.412,2.412,0,0,1-.609-1.754,2.309,2.309,0,0,1,.515-1.616,3.246,3.246,0,0,1,1.748-.821q.472-.094,1.2-.189a6.418,6.418,0,0,0,.945-.159.413.413,0,0,0,.24-.2.8.8,0,0,0,.077-.378.756.756,0,0,0-.288-.661,1.747,1.747,0,0,0-.966-.2,2.008,2.008,0,0,0-.644.094,1.576,1.576,0,0,0-.518.289q-.077.071-.232.24a1.323,1.323,0,0,1-.909.528.787.787,0,0,1-.589-.243.823.823,0,0,1-.236-.6,1.62,1.62,0,0,1,.884-1.343,3.908,3.908,0,0,1,2.173-.574,4.523,4.523,0,0,1,2.463.556,1.8,1.8,0,0,1,.856,1.606v4.354a4.726,4.726,0,0,0,.035.536q.035.3.035.378a.73.73,0,0,1-.232.574.937.937,0,0,1-.648.208,1.089,1.089,0,0,1-.84-.292Zm-1.472-3.372q-.652.138-.673.145a1.645,1.645,0,0,0-.75.387.908.908,0,0,0-.214.641.85.85,0,0,0,.283.679,1.171,1.171,0,0,0,.789.243,1.688,1.688,0,0,0,1.255-.472,1.727,1.727,0,0,0,.472-1.272v-.726a5.251,5.251,0,0,1-1.159.378ZM66.544,22.22A4.2,4.2,0,0,1,65.5,19.211a4.185,4.185,0,0,1,1.039-3,4.251,4.251,0,0,1,5.69,0,4.176,4.176,0,0,1,1.039,3,4.187,4.187,0,0,1-1.039,3.009,4.251,4.251,0,0,1-5.691,0Zm1.512-4.76a2.845,2.845,0,0,0-.472,1.751,2.874,2.874,0,0,0,.472,1.761,1.732,1.732,0,0,0,2.656,0,2.874,2.874,0,0,0,.472-1.761,2.846,2.846,0,0,0-.472-1.751,1.739,1.739,0,0,0-2.656,0Zm-9.17,4.763a4.434,4.434,0,0,1-.945-3.013,4.361,4.361,0,0,1,.969-3.005,3.389,3.389,0,0,1,2.667-1.088,3.685,3.685,0,0,1,2.213.661,1.861,1.861,0,0,1,.916,1.505.781.781,0,0,1-.265.591.957.957,0,0,1-1.124.115,2.1,2.1,0,0,1-.5-.472,2.018,2.018,0,0,0-.6-.532,1.411,1.411,0,0,0-.644-.137,1.241,1.241,0,0,0-1.128.6,3.452,3.452,0,0,0-.378,1.8,3.1,3.1,0,0,0,.391,1.7,1.265,1.265,0,0,0,1.124.6,1.352,1.352,0,0,0,.574-.112,1.389,1.389,0,0,0,.462-.367,2.925,2.925,0,0,0,.212-.275,1.252,1.252,0,0,1,.945-.648.9.9,0,0,1,.656.265.872.872,0,0,1,.268.644,1.453,1.453,0,0,1-.189.7,2.531,2.531,0,0,1-.555.679,3.516,3.516,0,0,1-1.12.676,3.818,3.818,0,0,1-1.318.218,3.307,3.307,0,0,1-2.633-1.088Zm-7.381.536a1.58,1.58,0,0,1-.9-1.336.9.9,0,0,1,.26-.661.9.9,0,0,1,.661-.257,1.316,1.316,0,0,1,.924.528q.134.148.2.218a1.458,1.458,0,0,0,.567.356,2.541,2.541,0,0,0,.808.109,1.815,1.815,0,0,0,.937-.2.629.629,0,0,0,.331-.567q0-.487-1.184-.768a.2.2,0,0,1-.043-.014l-.8-.183a4.913,4.913,0,0,1-2.047-.881,1.809,1.809,0,0,1-.609-1.43,2.267,2.267,0,0,1,.85-1.864,3.552,3.552,0,0,1,2.3-.687,4.267,4.267,0,0,1,2.131.486,1.386,1.386,0,0,1,.856,1.171.783.783,0,0,1-.243.591.85.85,0,0,1-.609.232,1.819,1.819,0,0,1-.966-.479q-.106-.085-.162-.127a1.394,1.394,0,0,0-.452-.214,1.9,1.9,0,0,0-.556-.088,1.631,1.631,0,0,0-.856.18.594.594,0,0,0-.283.539.484.484,0,0,0,.26.437,4.957,4.957,0,0,0,1.2.359l.635.141a4.724,4.724,0,0,1,2.049.85,1.833,1.833,0,0,1,.592,1.451,2.323,2.323,0,0,1-.919,1.984,4.44,4.44,0,0,1-2.675.683,4.251,4.251,0,0,1-2.267-.552Zm-36.657,0a1.578,1.578,0,0,1-.9-1.334.9.9,0,0,1,.26-.661.9.9,0,0,1,.661-.257,1.315,1.315,0,0,1,.924.528q.134.148.2.218a1.458,1.458,0,0,0,.567.356,2.537,2.537,0,0,0,.808.109,1.814,1.814,0,0,0,.937-.2.629.629,0,0,0,.329-.567q0-.487-1.184-.768a.2.2,0,0,1-.043-.014l-.8-.183A4.913,4.913,0,0,1,14.57,19.1a1.808,1.808,0,0,1-.609-1.43,2.267,2.267,0,0,1,.853-1.864,3.552,3.552,0,0,1,2.3-.687,4.268,4.268,0,0,1,2.131.486,1.387,1.387,0,0,1,.856,1.171.783.783,0,0,1-.243.591.85.85,0,0,1-.608.231,1.819,1.819,0,0,1-.966-.479q-.106-.085-.163-.127a1.4,1.4,0,0,0-.451-.214,1.907,1.907,0,0,0-.556-.088,1.631,1.631,0,0,0-.856.18.6.6,0,0,0-.283.539.485.485,0,0,0,.26.437,4.956,4.956,0,0,0,1.2.359l.635.141a4.724,4.724,0,0,1,2.049.85,1.833,1.833,0,0,1,.591,1.451,2.323,2.323,0,0,1-.919,1.984,4.435,4.435,0,0,1-2.674.683,4.252,4.252,0,0,1-2.267-.552Zm7.423-.165a2.774,2.774,0,0,1-.631-1.984V16.4a1.27,1.27,0,0,1,.257-.866.97.97,0,0,1,.764-.289.982.982,0,0,1,.768.289,1.258,1.258,0,0,1,.26.866v3.626a1.912,1.912,0,0,0,.275,1.166,1.088,1.088,0,0,0,.909.349,1.537,1.537,0,0,0,1.149-.43,1.6,1.6,0,0,0,.422-1.17V16.4a1.27,1.27,0,0,1,.258-.866.97.97,0,0,1,.764-.289.982.982,0,0,1,.768.289,1.258,1.258,0,0,1,.26.866v5.643a1.239,1.239,0,0,1-.253.856,1,1,0,0,1-.776.279.924.924,0,0,1-.673-.226,1.079,1.079,0,0,1-.265-.711l-.029-.26a2.526,2.526,0,0,1-.969.952,2.821,2.821,0,0,1-1.371.324,2.5,2.5,0,0,1-1.89-.661Zm52.354.3a1.228,1.228,0,0,1-.257-.85V13.672a1.243,1.243,0,0,1,.257-.856,1.176,1.176,0,0,1,1.536,0,1.243,1.243,0,0,1,.257.856v8.372a1.228,1.228,0,0,1-.257.85,1.176,1.176,0,0,1-1.536,0Zm-67.191.094a1.134,1.134,0,0,1-.378-.589l-.491-1.486H2.542L2.063,22.4a1.134,1.134,0,0,1-.378.585,1.062,1.062,0,0,1-.656.189,1.068,1.068,0,0,1-.746-.252A.871.871,0,0,1,0,22.242a1.521,1.521,0,0,1,.025-.275,1.435,1.435,0,0,1,.081-.275l2.865-8.057a1.786,1.786,0,0,1,.548-.9,1.934,1.934,0,0,1,1.022-.2,1.948,1.948,0,0,1,.99.189,1.72,1.72,0,0,1,.56.881L9.021,21.7a1.435,1.435,0,0,1,.081.275,1.521,1.521,0,0,1,.025.275.869.869,0,0,1-.289.676,1.083,1.083,0,0,1-.756.26,1.051,1.051,0,0,1-.644-.189ZM3.1,19.17H5.987L4.543,14.751Zm40.142,3.884a1.26,1.26,0,0,1-1.015-.341,2.111,2.111,0,0,1-.283-1.286v-7.12a2.124,2.124,0,0,1,.283-1.293,1.265,1.265,0,0,1,1.015-.342h5.208a1.365,1.365,0,0,1,.864.232.821.821,0,0,1,.292.683.785.785,0,0,1-.292.661,1.4,1.4,0,0,1-.864.226h-4.4v2.213H48.01a1.382,1.382,0,0,1,.856.222.8.8,0,0,1,.283.673.778.778,0,0,1-.292.656,1.369,1.369,0,0,1-.85.226H44.057v2.684h4.672a1.348,1.348,0,0,1,.866.236,1.017,1.017,0,0,1,0,1.424,1.323,1.323,0,0,1-.864.243Z" transform="translate(323.746 1458.32)" fill="#fff"/>
    <path id="Union_2" data-name="Union 2" d="M20.817,25.4a1.409,1.409,0,0,1-.856-1.212.865.865,0,0,1,.268-.652.937.937,0,0,1,.676-.257.983.983,0,0,1,.387.077,2.437,2.437,0,0,1,.507.338l.022.022a2.072,2.072,0,0,0,1.3.542,1.8,1.8,0,0,0,1.339-.4,2.212,2.212,0,0,0,.378-1.5v-.685a2.046,2.046,0,0,1-.842.821,2.829,2.829,0,0,1-1.292.265,2.96,2.96,0,0,1-2.382-1.06,4.233,4.233,0,0,1-.895-2.822,4.6,4.6,0,0,1,.877-2.956,2.871,2.871,0,0,1,2.362-1.1,2.74,2.74,0,0,1,1.323.3,2.267,2.267,0,0,1,.892.9v-.131a.915.915,0,0,1,.26-.676,1.087,1.087,0,0,1,1.441.025,1.317,1.317,0,0,1,.243.87v6.141a3.762,3.762,0,0,1-.87,2.812,4.207,4.207,0,0,1-2.934.825,4.44,4.44,0,0,1-2.209-.487Zm1.124-8.237a2.73,2.73,0,0,0-.43,1.641,2.722,2.722,0,0,0,.433,1.656,1.613,1.613,0,0,0,2.473,0,2.811,2.811,0,0,0,.426-1.685,2.621,2.621,0,0,0-.44-1.623,1.484,1.484,0,0,0-1.251-.574A1.417,1.417,0,0,0,21.941,17.161ZM5.06,22.83a4.906,4.906,0,0,1-1.422-.709,2.694,2.694,0,0,1-.744-.808,1.784,1.784,0,0,1-.279-.913,1.078,1.078,0,0,1,.268-.756.9.9,0,0,1,.7-.292,1.313,1.313,0,0,1,1.039.733q.183.283.3.423a1.872,1.872,0,0,0,.764.567,2.888,2.888,0,0,0,1.082.183,2.72,2.72,0,0,0,1.505-.345,1.125,1.125,0,0,0,.507-1q0-.93-2.614-1.53l-.148-.035A5.977,5.977,0,0,1,3.288,17.21a2.631,2.631,0,0,1-.709-1.984,2.762,2.762,0,0,1,1.039-2.294,4.556,4.556,0,0,1,2.9-.821,5.79,5.79,0,0,1,1.55.189,4,4,0,0,1,1.261.6,2.551,2.551,0,0,1,.719.756,1.6,1.6,0,0,1,.275.831.924.924,0,0,1-.26.687.945.945,0,0,1-.691.257,1.417,1.417,0,0,1-1.082-.681l-.2-.26A1.691,1.691,0,0,0,7.391,14a2.763,2.763,0,0,0-1-.162,2.173,2.173,0,0,0-1.29.331,1.081,1.081,0,0,0-.458.931q0,.817,1.775,1.233l.661.163q1.114.275,1.632.448a5.2,5.2,0,0,1,.881.378,2.367,2.367,0,0,1,.958.952,3.023,3.023,0,0,1,.312,1.428,3.008,3.008,0,0,1-1.087,2.443,4.526,4.526,0,0,1-2.978.9,6.141,6.141,0,0,1-1.74-.218Zm45.676-.363a1.581,1.581,0,0,1-.9-1.336.9.9,0,0,1,.26-.661.9.9,0,0,1,.661-.257,1.316,1.316,0,0,1,.924.528q.133.148.2.218a1.458,1.458,0,0,0,.567.356,2.54,2.54,0,0,0,.808.109,1.815,1.815,0,0,0,.937-.2.629.629,0,0,0,.33-.567q0-.487-1.184-.768a.2.2,0,0,1-.043-.014l-.8-.183a4.913,4.913,0,0,1-2.047-.881,1.809,1.809,0,0,1-.609-1.43,2.267,2.267,0,0,1,.85-1.864,3.553,3.553,0,0,1,2.3-.687,4.267,4.267,0,0,1,2.131.486,1.387,1.387,0,0,1,.856,1.171.783.783,0,0,1-.243.591.85.85,0,0,1-.609.232,1.819,1.819,0,0,1-.966-.479q-.106-.085-.163-.127a1.392,1.392,0,0,0-.451-.214A1.906,1.906,0,0,0,53,16.4a1.632,1.632,0,0,0-.856.18.6.6,0,0,0-.283.539.484.484,0,0,0,.26.437,4.965,4.965,0,0,0,1.2.359l.635.141a4.724,4.724,0,0,1,2.049.85,1.834,1.834,0,0,1,.592,1.451,2.323,2.323,0,0,1-.919,1.984A4.44,4.44,0,0,1,53,23.025a4.251,4.251,0,0,1-2.267-.554ZM42.3,21.926a4.194,4.194,0,0,1-1.039-3.009,4.185,4.185,0,0,1,1.039-3,4.251,4.251,0,0,1,5.69,0,4.174,4.174,0,0,1,1.039,3,4.187,4.187,0,0,1-1.039,3.009,4.251,4.251,0,0,1-5.69,0Zm1.512-4.76a2.847,2.847,0,0,0-.472,1.751,2.876,2.876,0,0,0,.472,1.761,1.732,1.732,0,0,0,2.656,0,2.874,2.874,0,0,0,.472-1.761,2.846,2.846,0,0,0-.472-1.751,1.739,1.739,0,0,0-2.656,0ZM12.572,21.9a4.45,4.45,0,0,1-.973-3.023,4.324,4.324,0,0,1,.959-2.967,3.317,3.317,0,0,1,2.622-1.085,3.556,3.556,0,0,1,2.667,1.021,3.757,3.757,0,0,1,1,2.74,1,1,0,0,1-.183.693,1.425,1.425,0,0,1-.915.189H13.72a2.114,2.114,0,0,0,.462,1.374,1.527,1.527,0,0,0,1.194.472,2.04,2.04,0,0,0,.648-.094,1.562,1.562,0,0,0,.522-.289q.058-.049.148-.134a1.475,1.475,0,0,1,.909-.472.791.791,0,0,1,.574.222.739.739,0,0,1,.23.554,1.018,1.018,0,0,1-.124.472,1.952,1.952,0,0,1-.378.483,3.377,3.377,0,0,1-1.188.715,4.427,4.427,0,0,1-1.512.25,3.315,3.315,0,0,1-2.635-1.12Zm1.593-4.961a1.9,1.9,0,0,0-.444,1.181h3.016a1.778,1.778,0,0,0-.419-1.181,1.438,1.438,0,0,0-1.1-.4,1.379,1.379,0,0,0-1.056.4Zm14.7,5.359a2.774,2.774,0,0,1-.631-1.984V16.1a1.27,1.27,0,0,1,.257-.866.97.97,0,0,1,.764-.289.982.982,0,0,1,.768.289,1.258,1.258,0,0,1,.26.866v3.621a1.91,1.91,0,0,0,.275,1.166,1.087,1.087,0,0,0,.909.349,1.537,1.537,0,0,0,1.149-.43,1.6,1.6,0,0,0,.422-1.17V16.1a1.27,1.27,0,0,1,.257-.866.971.971,0,0,1,.765-.289.982.982,0,0,1,.768.289,1.258,1.258,0,0,1,.26.866v5.644a1.238,1.238,0,0,1-.254.856,1,1,0,0,1-.775.279.922.922,0,0,1-.673-.226,1.078,1.078,0,0,1-.265-.711l-.029-.26a2.524,2.524,0,0,1-.969.952,2.82,2.82,0,0,1-1.369.327A2.5,2.5,0,0,1,28.863,22.3Zm28.989.24a1.172,1.172,0,0,1-.356-.85,1.209,1.209,0,0,1,1.2-1.2,1.175,1.175,0,0,1,.861.349,1.2,1.2,0,0,1-.007,1.705,1.172,1.172,0,0,1-.85.356,1.146,1.146,0,0,1-.843-.359Zm-21.089.06a1.228,1.228,0,0,1-.257-.85V16.1a1.294,1.294,0,0,1,.25-.866.931.931,0,0,1,.744-.289.831.831,0,0,1,.909.909v.676a3.183,3.183,0,0,1,.776-1.167,1.455,1.455,0,0,1,.986-.419,1.092,1.092,0,0,1,.8.283,1.034,1.034,0,0,1,.289.776,1.107,1.107,0,0,1-.081.437.935.935,0,0,1-.25.338,1.182,1.182,0,0,1-.7.189,3.753,3.753,0,0,0-.451.043,1.375,1.375,0,0,0-.905.539,1.937,1.937,0,0,0-.306,1.153v3.043a1.228,1.228,0,0,1-.258.85,1.176,1.176,0,0,1-1.536,0Z" transform="translate(333.492 1487.996)" fill="#fff" stroke="rgba(0,0,0,0)" stroke-width="1"/>
  </g>
</svg>
